<svg width="257" height="34" viewBox="0 0 257 34" fill="none" xmlns="http://www.w3.org/2000/svg">
<path d="M19.096 0.400057V20.0001H13.636V13.3361C12.124 13.8401 10.7333 14.0921 9.464 14.0921C6.72 14.0921 4.62 13.4387 3.164 12.1321C1.72666 10.8067 1.008 8.90273 1.008 6.42006V0.400057H6.468V5.80406C6.468 8.32406 7.7 9.58406 10.164 9.58406C11.508 9.58406 12.6653 9.36006 13.636 8.91206V0.400057H19.096Z" fill="black"/>
<path d="M39.0834 4.79606H33.0914V20.0001H27.6314V4.79606H21.6114V0.400057H39.0834V4.79606Z" fill="black"/>
<path d="M50.9976 20.3921C48.9256 20.3921 47.059 19.9534 45.3976 19.0761C43.755 18.1987 42.4576 16.9854 41.5056 15.4361C40.5723 13.8867 40.1056 12.1414 40.1056 10.2001C40.1056 8.25872 40.5723 6.51339 41.5056 4.96406C42.4576 3.41472 43.755 2.20139 45.3976 1.32406C47.059 0.446723 48.9256 0.00805664 50.9976 0.00805664C53.0696 0.00805664 54.927 0.446723 56.5696 1.32406C58.231 2.20139 59.5283 3.41472 60.4616 4.96406C61.4136 6.51339 61.8896 8.25872 61.8896 10.2001C61.8896 12.1414 61.4136 13.8867 60.4616 15.4361C59.5283 16.9854 58.231 18.1987 56.5696 19.0761C54.927 19.9534 53.0696 20.3921 50.9976 20.3921ZM50.9976 15.8001C51.987 15.8001 52.883 15.5667 53.6856 15.1001C54.4883 14.6334 55.123 13.9801 55.5896 13.1401C56.0563 12.2814 56.2896 11.3014 56.2896 10.2001C56.2896 9.09872 56.0563 8.12806 55.5896 7.28806C55.123 6.42939 54.4883 5.76672 53.6856 5.30006C52.883 4.83339 51.987 4.60006 50.9976 4.60006C50.0083 4.60006 49.1123 4.83339 48.3096 5.30006C47.507 5.76672 46.8723 6.42939 46.4056 7.28806C45.939 8.12806 45.7056 9.09872 45.7056 10.2001C45.7056 11.3014 45.939 12.2814 46.4056 13.1401C46.8723 13.9801 47.507 14.6334 48.3096 15.1001C49.1123 15.5667 50.0083 15.8001 50.9976 15.8001Z" fill="black"/>
<path d="M87.2823 9.75206C88.4397 10.1254 89.317 10.7041 89.9143 11.4881C90.5303 12.2721 90.8383 13.2427 90.8383 14.4001C90.8383 16.1361 90.157 17.5081 88.7943 18.5161C87.4503 19.5054 85.537 20.0001 83.0543 20.0001H73.0023V0.400057H82.5223C84.8743 0.400057 86.6943 0.848057 87.9823 1.74406C89.289 2.62139 89.9423 3.87206 89.9423 5.49606C89.9423 6.44806 89.709 7.28806 89.2423 8.01606C88.7943 8.74406 88.141 9.32272 87.2823 9.75206ZM78.4623 8.24006H81.9903C83.5583 8.24006 84.3423 7.59606 84.3423 6.30806C84.3423 5.02006 83.5583 4.37606 81.9903 4.37606H78.4623V8.24006ZM82.8303 16.0241C84.4357 16.0241 85.2383 15.3427 85.2383 13.9801C85.2383 12.6547 84.4357 11.9921 82.8303 11.9921H78.4623V16.0241H82.8303Z" fill="black"/>
<path d="M117.779 4.79606H111.787V20.0001H106.327V4.79606H100.307V0.400057H117.779V4.79606Z" fill="black"/>
<path d="M132.874 16.1921H124.586L123.046 20.0001H117.39L126.042 0.400057H131.502L140.182 20.0001H134.414L132.874 16.1921ZM131.25 12.1041L128.73 5.83206L126.21 12.1041H131.25Z" fill="black"/>
<path d="M151.388 0.400057C153.161 0.400057 154.701 0.698723 156.008 1.29606C157.315 1.87472 158.323 2.71472 159.032 3.81606C159.741 4.89872 160.096 6.17739 160.096 7.65206C160.096 9.12672 159.741 10.4054 159.032 11.4881C158.323 12.5707 157.315 13.4107 156.008 14.0081C154.701 14.5867 153.161 14.8761 151.388 14.8761H147.972V20.0001H142.428V0.400057H151.388ZM151.052 10.5081C152.191 10.5081 153.049 10.2654 153.628 9.78006C154.207 9.27606 154.496 8.56672 154.496 7.65206C154.496 6.73739 154.207 6.02806 153.628 5.52406C153.049 5.02006 152.191 4.76806 151.052 4.76806H147.972V10.5081H151.052Z" fill="black"/>
<path d="M178.344 15.7161V20.0001H162.608V0.400057H177.98V4.68406H168.096V7.98806H176.804V12.1321H168.096V15.7161H178.344Z" fill="black"/>
<path d="M199.786 0.400057V20.0001H194.326V4.79606H188.698L188.586 7.98806C188.493 10.7881 188.26 13.0654 187.886 14.8201C187.532 16.5747 186.916 17.9374 186.038 18.9081C185.161 19.8601 183.92 20.3361 182.314 20.3361C181.568 20.3361 180.728 20.2241 179.794 20.0001L180.102 15.4641C180.345 15.5201 180.597 15.5481 180.858 15.5481C181.586 15.5481 182.146 15.2587 182.538 14.6801C182.93 14.1014 183.21 13.2987 183.378 12.2721C183.546 11.2267 183.658 9.87339 183.714 8.21206L183.994 0.400057H199.786Z" fill="black"/>
<path d="M211.903 12.4961H209.383V20.0001H203.867V0.400057H209.383V8.01606H212.043L216.719 0.400057H222.543L216.411 9.86406L222.599 20.0001H216.355L211.903 12.4961Z" fill="black"/>
<path d="M240.113 15.7161V20.0001H224.377V0.400057H239.749V4.68406H229.865V7.98806H238.573V12.1321H229.865V15.7161H240.113Z" fill="black"/>
<path d="M247.026 12.8601C247.026 11.9267 247.231 11.1614 247.642 10.5641C248.053 9.94806 248.65 9.27606 249.434 8.54806C249.975 8.04406 250.377 7.62406 250.638 7.28806C250.899 6.93339 251.03 6.56006 251.03 6.16806C251.03 5.62672 250.797 5.19739 250.33 4.88006C249.882 4.54406 249.294 4.37606 248.566 4.37606C247.819 4.37606 247.138 4.55339 246.522 4.90806C245.925 5.26272 245.439 5.75739 245.066 6.39206L240.894 4.15206C241.659 2.84539 242.742 1.82806 244.142 1.10006C245.542 0.372057 247.231 0.00805664 249.21 0.00805664C251.431 0.00805664 253.214 0.474724 254.558 1.40806C255.921 2.32272 256.602 3.61072 256.602 5.27206C256.602 6.03739 256.471 6.71872 256.21 7.31606C255.949 7.89472 255.631 8.38939 255.258 8.80006C254.903 9.19206 254.437 9.64006 253.858 10.1441C253.223 10.6854 252.757 11.1521 252.458 11.5441C252.159 11.9174 252.01 12.3561 252.01 12.8601H247.026ZM249.518 20.2521C248.603 20.2521 247.847 19.9721 247.25 19.4121C246.653 18.8334 246.354 18.1334 246.354 17.3121C246.354 16.4721 246.643 15.7814 247.222 15.2401C247.819 14.6987 248.585 14.4281 249.518 14.4281C250.451 14.4281 251.217 14.6987 251.814 15.2401C252.411 15.7814 252.71 16.4721 252.71 17.3121C252.71 18.1334 252.411 18.8334 251.814 19.4121C251.217 19.9721 250.451 20.2521 249.518 20.2521Z" fill="black"/>
<rect y="28" width="52" height="6" fill="#F67100"/>
<rect x="50" y="28" width="56" height="6" fill="#3D43F7"/>
<rect x="106" y="28" width="151" height="6" fill="#00B775"/>
</svg>
